<?xml version="1.0" encoding="utf-8"?>
<?xml-stylesheet type="text/xsl" href="rss1.xsl"?>
<rss version="2.0" xmlns:atom="http://www.w3.org/2005/Atom" xmlns:content="http://purl.org/rss/1.0/modules/content/" xmlns:dc="http://purl.org/dc/elements/1.1/" xmlns:media="http://search.yahoo.com/mrss/">
<channel>
 <title>Getty</title>
 <link>http://www.gettyimg.com/</link>
 <atom:link href="http://www.gettyimg.com/" rel="self" type="application/rss+xml" />

 
                <item>
                <title><![CDATA[【BLU-RAY &amp; BD RIP】5 Seconds Of Summer - Don't Stop (2014) (BlueRay - 1080P)]]></title>
                <link><![CDATA[https://sharemania.us/threads/5-seconds-of-summer-dont-stop-2014-blueray-1080p.238987/]]></link>
                <description><![CDATA[<article>
<blockquote class="messageText SelectQuoteContainer ugc baseHtml">
<img src="https://i.imgur.com/aKcLqRj.jpg" class="bbCodeImage LbImage" alt="[​IMG]" data-url="https://i.imgur.com/aKcLqRj.jpg" style=""> <br>
<b><span style="font-size: 15px">5 Seconds Of Summer - Don't Stop (2014) (BlueRay - 1080P)</span></b><br>
<div class="ToggleTriggerAnchor bbCodeSpoilerContainer">
<button type="button" class="button bbCodeSpoilerButton ToggleTrigger Tooltip JsOnly" data-target="> .SpoilerTarget"><span>Spoiler: <span class="SpoilerTitle">Media Info</span></span></button>
<div class="SpoilerTarget bbCodeSpoilerText">General<br>
ID : 0 (0x0)<br>
Complete name :5 Seconds Of Summer\She's Kinda Hot (BD).m2ts<br>
Format : BDAV<br>
Format/Info : Blu-ray Video<br>
File size : 835 MiB<br>
Duration : 4 min 7 s<br>
Overall bit rate mode : Variable<br>
Overall bit rate : 28.3 Mb/s<br>
Maximum Overall bit rate : 48.0 Mb/s<br>
<br>
Video<br>
ID : 4113 (0x1011)<br>
Menu ID : 1 (0x1)<br>
Format : AVC<br>
Format/Info : Advanced Video Codec<br>
Format profile : High@L4.1<br>
Format settings, CABAC : Yes<br>
Format settings, RefFrames : 4 frames<br>
Format settings, GOP : M=3, N=24<br>
Codec ID : 27<br>
Duration : 4 min 7 s<br>
Bit rate mode : Variable<br>
Bit rate : 25.6 Mb/s<br>
Maximum bit rate : 39.0 Mb/s<br>
Width : 1 920 pixels<br>
Height : 1 080 pixels<br>
Display aspect ratio : 16:9<br>
Frame rate : 23.976 (24000/1001) FPS<br>
Standard : NTSC<br>
Color space : YUV<br>
Chroma subsampling : 4:2:0<br>
Bit depth : 8 bits<br>
Scan type : Progressive<br>
Bits/(Pixel*Frame) : 0.516<br>
Stream size : 756 MiB (91%)<br>
Color range : Limited<br>
Color primaries : BT.709<br>
Transfer characteristics : BT.709<br>
Matrix coefficients : BT.709<br>
<br>
Audio<br>
ID : 4352 (0x1100)<br>
Menu ID : 1 (0x1)<br>
Format : PCM<br>
Format settings, Endianness : Big<br>
Format settings, Sign : Signed<br>
Muxing mode : Blu-ray<br>
Codec ID : 128<br>
Duration : 4 min 7 s<br>
Bit rate mode : Constant<br>
Bit rate : 1 536 kb/s<br>
Channel(s) : 2 channels<br>
Channel positions : Front: L R<br>
Sampling rate : 48.0 kHz<br>
Bit depth : 16 bits<br>
Stream size : 45.3 MiB (5%)</div>
</div><b><span style="font-size: 15px"><br>
For 5 Seconds Of Summer - She's Kinda Hot 720p (Extended) (vjstreet Pool) Link<br>
<a href="https://sharemania.us/threads/5-seconds-of-summer-shes-kinda-hot-720p-extended-vjstreet-pool.223594/" class="internalLink">https://sharemania.us/threads/5-seconds-of-summer-shes-kinda-hot-720p-extended-vjstreet-pool.223594/</a><br>
</span><br>
<b><span style="font-size: 15px">[/URL]
<div class="bbCodeBlock bbCodeVfcHH HiddenContent">
<div class="attribution type">Hidden Content:</div>
<blockquote>You must reply before you can see the hidden data contained here.</blockquote>
</div></span></b></b>
<div class="messageTextEndMarker">&nbsp;</div>
</blockquote>
</article>]]></description>
                <author><![CDATA[gamerfronts]]></author>
                </item>

                </channel></rss>